<svg width="24" height="24" viewBox="0 0 24 24" fill="none" xmlns="http://www.w3.org/2000/svg">
<g clip-path="url(#clip0_131_449)">
<path d="M18.4999 24.0001H13.0339C11.1607 24.0328 9.30128 23.6753 7.57381 22.9504C5.84633 22.2254 4.28866 21.1488 2.99989 19.7891C1.9094 18.5969 1.08314 17.1878 0.575274 15.654C0.0674048 14.1202 -0.110614 12.4965 0.0528848 10.8891C0.300973 8.27373 1.39879 5.81158 3.17847 3.87913C4.95815 1.94667 7.32176 0.650247 9.90789 0.188087C11.6068 -0.127043 13.3546 -0.0599994 15.0245 0.384353C16.6943 0.828706 18.2443 1.63922 19.5619 2.75709C20.9568 3.92969 22.0773 5.39427 22.8441 7.04737C23.611 8.70047 24.0055 10.5018 23.9999 12.3241V18.5001C23.998 19.9582 23.418 21.3561 22.3869 22.3871C21.3559 23.4182 19.958 23.9982 18.4999 24.0001ZM12.0299 3.00009C9.78439 2.99815 7.61889 3.83374 5.95672 5.34353C4.29454 6.85332 3.25521 8.92874 3.04189 11.1641C2.91954 12.3565 3.0505 13.5613 3.42618 14.6995C3.80187 15.8378 4.4138 16.8838 5.22189 17.7691C6.22902 18.8196 7.44353 19.6493 8.78835 20.2055C10.1332 20.7617 11.5789 21.0323 13.0339 21.0001H18.4999C19.1629 21.0001 19.7988 20.7367 20.2677 20.2679C20.7365 19.799 20.9999 19.1631 20.9999 18.5001V12.3241C21.0045 10.9399 20.7055 9.57154 20.1239 8.31544C19.5423 7.05934 18.6924 5.94607 17.6339 5.05409C16.0693 3.72523 14.0826 2.99706 12.0299 3.00009ZM11.9999 6.00009C11.6021 6.00009 11.2205 6.15812 10.9392 6.43943C10.6579 6.72073 10.4999 7.10226 10.4999 7.50009C10.4999 7.89791 10.6579 8.27944 10.9392 8.56075C11.2205 8.84205 11.6021 9.00009 11.9999 9.00009C12.3977 9.00009 12.7792 8.84205 13.0605 8.56075C13.3419 8.27944 13.4999 7.89791 13.4999 7.50009C13.4999 7.10226 13.3419 6.72073 13.0605 6.43943C12.7792 6.15812 12.3977 6.00009 11.9999 6.00009ZM12.4999 19.0001C12.1021 19.0001 11.7205 18.8421 11.4392 18.5607C11.1579 18.2794 10.9999 17.8979 10.9999 17.5001V13.0001H10.4999C10.1021 13.0001 9.72053 12.8421 9.43923 12.5607C9.15792 12.2794 8.99989 11.8979 8.99989 11.5001C8.99989 11.1023 9.15792 10.7207 9.43923 10.4394C9.72053 10.1581 10.1021 10.0001 10.4999 10.0001H11.4999C12.1629 10.0001 12.7988 10.2635 13.2677 10.7323C13.7365 11.2012 13.9999 11.837 13.9999 12.5001V17.5001C13.9999 17.8979 13.8419 18.2794 13.5605 18.5607C13.2792 18.8421 12.8977 19.0001 12.4999 19.0001Z" fill="#333333"/>
</g>
<defs>
<clipPath id="clip0_131_449">
<rect width="24" height="24" fill="white"/>
</clipPath>
</defs>
</svg>
