<svg width="28" height="28" viewBox="0 0 28 28" fill="none" xmlns="http://www.w3.org/2000/svg">
<path d="M10.0003 3.6H7.12031C5.32814 3.6 4.43139 3.6 3.74688 3.94878C3.14476 4.25557 2.65557 4.74476 2.34878 5.34688C2 6.03139 2 6.92814 2 8.72031V20.8803C2 22.6725 2 23.5681 2.34878 24.2526C2.65557 24.8547 3.14476 25.3448 3.74688 25.6516C4.43072 26 5.32639 26 7.11505 26H19.2849C21.0736 26 21.968 26 22.6518 25.6516C23.254 25.3448 23.7448 24.8543 24.0516 24.2521C24.4 23.5683 24.4 22.6736 24.4 20.8849V18M26 10V2M26 2H18M26 2L14.8 13.2" stroke="#4D81E7" stroke-width="4" stroke-linecap="round" stroke-linejoin="round"/>
</svg>
