<svg width="24" height="24" viewBox="0 0 24 24" fill="none" xmlns="http://www.w3.org/2000/svg">
<path d="M17.5 0H8.5C7.48727 0.00110132 6.49452 0.281796 5.63115 0.811144C4.76778 1.34049 4.06733 2.09794 3.607 3H2.5C2.10218 3 1.72064 3.15804 1.43934 3.43934C1.15804 3.72064 1 4.10218 1 4.5C1 4.89782 1.15804 5.27936 1.43934 5.56066C1.72064 5.84196 2.10218 6 2.5 6H3V8H2.5C2.10218 8 1.72064 8.15804 1.43934 8.43934C1.15804 8.72064 1 9.10218 1 9.5C1 9.89782 1.15804 10.2794 1.43934 10.5607C1.72064 10.842 2.10218 11 2.5 11H3V13H2.5C2.10218 13 1.72064 13.158 1.43934 13.4393C1.15804 13.7206 1 14.1022 1 14.5C1 14.8978 1.15804 15.2794 1.43934 15.5607C1.72064 15.842 2.10218 16 2.5 16H3V18H2.5C2.10218 18 1.72064 18.158 1.43934 18.4393C1.15804 18.7206 1 19.1022 1 19.5C1 19.8978 1.15804 20.2794 1.43934 20.5607C1.72064 20.842 2.10218 21 2.5 21H3.607C4.06733 21.9021 4.76778 22.6595 5.63115 23.1889C6.49452 23.7182 7.48727 23.9989 8.5 24H17.5C18.9582 23.9984 20.3562 23.4184 21.3873 22.3873C22.4184 21.3562 22.9984 19.9582 23 18.5V5.5C22.9984 4.0418 22.4184 2.64377 21.3873 1.61267C20.3562 0.581561 18.9582 0.00158817 17.5 0V0ZM20 18.5C20 19.163 19.7366 19.7989 19.2678 20.2678C18.7989 20.7366 18.163 21 17.5 21H8.5C7.83696 21 7.20107 20.7366 6.73223 20.2678C6.26339 19.7989 6 19.163 6 18.5V5.5C6 4.83696 6.26339 4.20107 6.73223 3.73223C7.20107 3.26339 7.83696 3 8.5 3H17.5C18.163 3 18.7989 3.26339 19.2678 3.73223C19.7366 4.20107 20 4.83696 20 5.5V18.5ZM10.5 9.5C10.5 8.83696 10.7634 8.20107 11.2322 7.73223C11.7011 7.26339 12.337 7 13 7C13.663 7 14.2989 7.26339 14.7678 7.73223C15.2366 8.20107 15.5 8.83696 15.5 9.5C15.5 10.163 15.2366 10.7989 14.7678 11.2678C14.2989 11.7366 13.663 12 13 12C12.337 12 11.7011 11.7366 11.2322 11.2678C10.7634 10.7989 10.5 10.163 10.5 9.5ZM16.988 16.232C17.0031 16.3282 16.9969 16.4266 16.9698 16.5202C16.9427 16.6137 16.8954 16.7002 16.8312 16.7735C16.767 16.8467 16.6875 16.905 16.5983 16.9441C16.5091 16.9833 16.4124 17.0024 16.315 17H9.654C9.55662 17.0024 9.45991 16.9833 9.37071 16.9441C9.28151 16.905 9.202 16.8467 9.1378 16.7735C9.07361 16.7002 9.02629 16.6137 8.99919 16.5202C8.97209 16.4266 8.96588 16.3282 8.981 16.232C9.842 11.965 16.128 11.968 16.988 16.232Z" fill="#333333"/>
</svg>
