<svg width="24" height="24" viewBox="0 0 24 24" fill="none" xmlns="http://www.w3.org/2000/svg">
<g clip-path="url(#clip0_673_1059)">
<path d="M23.9001 11.3942C23.5072 8.37018 21.9779 5.60919 19.6227 3.67215C17.2676 1.73511 14.2634 0.767323 11.2205 0.965433C8.17752 1.16354 5.32413 2.51268 3.24005 4.73874C1.15596 6.96479 -0.00249125 9.90077 6.77014e-05 12.9502C-0.00544564 14.5778 0.325836 16.189 0.973086 17.6824C1.62034 19.1759 2.56956 20.5193 3.76107 21.6282C4.73353 22.5257 6.01283 23.0166 7.33607 23.0002H16.6581C18.0508 23.0039 19.3894 22.461 20.3861 21.4882C21.7205 20.1978 22.7336 18.6123 23.3439 16.8592C23.9542 15.1061 24.1447 13.2343 23.9001 11.3942ZM18.2931 19.3382C17.8557 19.7643 17.2687 20.002 16.6581 20.0002H7.33607C6.77744 20.0119 6.23482 19.8131 5.81607 19.4432C4.9243 18.6136 4.21379 17.6085 3.72917 16.4911C3.24455 15.3737 2.99632 14.1681 3.00007 12.9502C3.00722 10.5721 3.95767 8.29401 5.64279 6.61601C7.32791 4.93802 9.60998 3.99723 11.9881 4.00015C12.3422 4.00034 12.6961 4.02037 13.0481 4.06015C15.0299 4.29186 16.8786 5.17498 18.3043 6.57094C19.7299 7.9669 20.6517 9.79668 20.9251 11.7732C21.1082 13.152 20.9656 14.5546 20.5087 15.8683C20.0517 17.1821 19.2933 18.3705 18.2941 19.3382H18.2931ZM9.05307 15.4852C9.32226 15.7781 9.46407 16.166 9.44728 16.5634C9.4305 16.9609 9.2565 17.3355 8.96357 17.6047C8.67064 17.8738 8.28276 18.0156 7.88528 17.9989C7.4878 17.9821 7.11326 17.8081 6.84407 17.5152C5.65688 16.2266 4.99851 14.5382 5.00007 12.7862C5.01088 11.0616 5.67479 9.40528 6.85809 8.15074C8.04138 6.89619 9.65613 6.13666 11.3771 6.02515C11.7737 5.99253 12.167 6.11881 12.4706 6.3762C12.7741 6.63359 12.9629 7.00102 12.9956 7.39765C13.0282 7.79428 12.9019 8.18763 12.6445 8.49116C12.3871 8.79468 12.0197 8.98353 11.6231 9.01615C10.6506 9.05904 9.73186 9.47447 9.05735 10.1763C8.38284 10.8782 8.00426 11.8127 8.00007 12.7862C7.99943 13.7862 8.37538 14.7498 9.05307 15.4852V15.4852ZM18.9411 13.6932C18.7572 15.1219 18.1334 16.4579 17.1561 17.5162C16.8866 17.8091 16.5118 17.983 16.1141 17.9996C15.7165 18.0162 15.3285 17.8741 15.0356 17.6047C14.7426 17.3352 14.5687 16.9604 14.5521 16.5627C14.5356 16.1651 14.6776 15.7771 14.9471 15.4842C15.5049 14.8821 15.8615 14.1212 15.9671 13.3072C16.0276 12.9209 16.2366 12.5736 16.5495 12.3392C16.8623 12.1048 17.2543 12.0018 17.642 12.0521C18.0297 12.1024 18.3824 12.3021 18.6251 12.6086C18.8677 12.9151 18.9811 13.3043 18.9411 13.6932V13.6932ZM13.9861 13.1352C13.962 13.5193 13.8276 13.8884 13.599 14.1981C13.3704 14.5078 13.0573 14.7449 12.6972 14.881C12.3372 15.0171 11.9455 15.0465 11.5692 14.9655C11.1929 14.8845 10.8479 14.6966 10.5758 14.4245C10.3036 14.1523 10.1157 13.8073 10.0347 13.431C9.95375 13.0547 9.98308 12.663 10.1192 12.303C10.2553 11.9429 10.4925 11.6298 10.8021 11.4012C11.1118 11.1726 11.4809 11.0382 11.8651 11.0142L14.4391 8.43915C14.7205 8.15776 15.1021 7.99967 15.5001 7.99967C15.898 7.99967 16.2797 8.15776 16.5611 8.43915C16.8425 8.72055 17.0005 9.1022 17.0005 9.50015C17.0005 9.8981 16.8425 10.2798 16.5611 10.5612L13.9861 13.1352Z" fill="#333333"/>
</g>
<defs>
<clipPath id="clip0_673_1059">
<rect width="24" height="24" fill="white"/>
</clipPath>
</defs>
</svg>
