<svg width="24" height="24" viewBox="0 0 24 24" fill="none" xmlns="http://www.w3.org/2000/svg">
<path d="M20.5166 19.7539C20.9307 20.1671 21.3524 20.5838 21.7773 21H1.5C1.10218 21 0.720757 20.8418 0.439453 20.5605C0.158149 20.2792 0 19.8978 0 19.5C0 19.1022 0.158149 18.7208 0.439453 18.4395C0.720757 18.1582 1.10218 18 1.5 18H18.7529C19.3411 18.5845 19.928 19.1701 20.5166 19.7539ZM14.7148 13C14.9034 13.8193 15.32 14.5864 15.917 15.1797C16.1916 15.4536 16.4675 15.7263 16.7422 16H1.5C1.10218 16 0.720756 15.8418 0.439453 15.5605C0.158155 15.2792 7.57676e-06 14.8978 0 14.5C0 14.1022 0.158155 13.7208 0.439453 13.4395C0.720758 13.1581 1.10218 13 1.5 13H14.7148ZM15.918 8.81934C15.3208 9.41361 14.903 10.1804 14.7148 11H1.5C1.10218 11 0.720758 10.8419 0.439453 10.5605C0.158155 10.2792 0 9.89782 0 9.5C7.57676e-06 9.10219 0.158155 8.72075 0.439453 8.43945C0.720756 8.15816 1.10218 8 1.5 8H16.7422C16.4678 8.2734 16.1922 8.54579 15.918 8.81934ZM21.7891 3C21.3587 3.41602 20.9316 3.83393 20.5176 4.24707C19.9287 4.83038 19.342 5.41587 18.7539 6H1.5C1.10218 6 0.720757 5.84185 0.439453 5.56055C0.15815 5.27924 2.02051e-06 4.89782 0 4.5C0 4.10218 0.158149 3.72076 0.439453 3.43945C0.720758 3.15815 1.10218 3 1.5 3H21.7891Z" fill="#333333"/>
<path d="M19.4293 12.0687C19.3874 12.0269 19.3542 11.9772 19.3315 11.9225C19.3088 11.8679 19.2971 11.8093 19.2971 11.7501C19.2971 11.6909 19.3088 11.6323 19.3315 11.5776C19.3542 11.5229 19.3874 11.4733 19.4293 11.4315L23.5567 7.305C23.81 7.05186 23.9523 6.70849 23.9524 6.35042C23.9525 5.99235 23.8103 5.64891 23.5572 5.39566C23.304 5.14241 22.9607 5.00008 22.6026 5C22.2445 4.99992 21.9011 5.14208 21.6478 5.39521L17.5205 9.52258C16.9308 10.1139 16.5996 10.9149 16.5996 11.7501C16.5996 12.5852 16.9308 13.3862 17.5205 13.9775L21.6478 18.1049C21.9011 18.358 22.2445 18.5002 22.6026 18.5001C22.9607 18.5 23.304 18.3577 23.5572 18.1045C23.8103 17.8512 23.9525 17.5078 23.9524 17.1497C23.9523 16.7916 23.81 16.4483 23.5567 16.1951L19.4293 12.0687Z" fill="#333333"/>
</svg>
