<svg width="32" height="32" viewBox="0 0 32 32" fill="none" xmlns="http://www.w3.org/2000/svg">
<path d="M23.3334 0H11.3334C9.98314 0.00146843 8.65946 0.375728 7.5083 1.08153C6.35714 1.78732 5.42321 2.79725 4.80944 4H3.33344C2.803 4 2.29429 4.21071 1.91922 4.58579C1.54415 4.96086 1.33344 5.46957 1.33344 6C1.33344 6.53043 1.54415 7.03914 1.91922 7.41421C2.29429 7.78929 2.803 8 3.33344 8H4.0001V10.6667H3.33344C2.803 10.6667 2.29429 10.8774 1.91922 11.2525C1.54415 11.6275 1.33344 12.1362 1.33344 12.6667C1.33344 13.1971 1.54415 13.7058 1.91922 14.0809C2.29429 14.456 2.803 14.6667 3.33344 14.6667H4.0001V17.3333H3.33344C2.803 17.3333 2.29429 17.544 1.91922 17.9191C1.54415 18.2942 1.33344 18.8029 1.33344 19.3333C1.33344 19.8638 1.54415 20.3725 1.91922 20.7475C2.29429 21.1226 2.803 21.3333 3.33344 21.3333H4.0001V24H3.33344C2.803 24 2.29429 24.2107 1.91922 24.5858C1.54415 24.9609 1.33344 25.4696 1.33344 26C1.33344 26.5304 1.54415 27.0391 1.91922 27.4142C2.29429 27.7893 2.803 28 3.33344 28H4.80944C5.42321 29.2027 6.35714 30.2127 7.5083 30.9185C8.65946 31.6243 9.98314 31.9985 11.3334 32H23.3334C25.2777 31.9979 27.1417 31.2246 28.5165 29.8498C29.8914 28.475 30.6647 26.6109 30.6668 24.6667V7.33333C30.6647 5.38906 29.8914 3.52503 28.5165 2.15022C27.1417 0.775414 25.2777 0.00211756 23.3334 0V0ZM26.6668 24.6667C26.6668 25.5507 26.3156 26.3986 25.6905 27.0237C25.0653 27.6488 24.2175 28 23.3334 28H11.3334C10.4494 28 9.60153 27.6488 8.97641 27.0237C8.35129 26.3986 8.0001 25.5507 8.0001 24.6667V7.33333C8.0001 6.44928 8.35129 5.60143 8.97641 4.97631C9.60153 4.35119 10.4494 4 11.3334 4H23.3334C24.2175 4 25.0653 4.35119 25.6905 4.97631C26.3156 5.60143 26.6668 6.44928 26.6668 7.33333V24.6667ZM14.0001 12.6667C14.0001 11.7826 14.3513 10.9348 14.9764 10.3096C15.6015 9.68452 16.4494 9.33333 17.3334 9.33333C18.2175 9.33333 19.0653 9.68452 19.6905 10.3096C20.3156 10.9348 20.6668 11.7826 20.6668 12.6667C20.6668 13.5507 20.3156 14.3986 19.6905 15.0237C19.0653 15.6488 18.2175 16 17.3334 16C16.4494 16 15.6015 15.6488 14.9764 15.0237C14.3513 14.3986 14.0001 13.5507 14.0001 12.6667ZM22.6508 21.6427C22.6709 21.771 22.6626 21.9021 22.6265 22.0269C22.5904 22.1516 22.5273 22.2669 22.4417 22.3646C22.3561 22.4623 22.2501 22.54 22.1312 22.5922C22.0122 22.6444 21.8833 22.6698 21.7534 22.6667H12.8721C12.7423 22.6698 12.6133 22.6444 12.4944 22.5922C12.3755 22.54 12.2694 22.4623 12.1838 22.3646C12.0982 22.2669 12.0351 22.1516 11.999 22.0269C11.9629 21.9021 11.9546 21.771 11.9748 21.6427C13.1228 15.9533 21.5041 15.9573 22.6508 21.6427Z" fill="#313131"/>
</svg>
