<svg width="32" height="32" viewBox="0 0 32 32" fill="none" xmlns="http://www.w3.org/2000/svg">
<g clip-path="url(#clip0_163_896)">
<path d="M31.8667 15.1922C31.3429 11.1602 29.3038 7.47892 26.1636 4.89619C23.0234 2.31347 19.0178 1.0231 14.9605 1.28724C10.9033 1.55139 7.09877 3.35024 4.31998 6.31831C1.5412 9.28639 -0.00339796 13.201 1.39746e-05 17.2669C-0.00733714 19.4371 0.434372 21.5853 1.29737 23.5766C2.16037 25.5679 3.426 27.359 5.01468 28.8375C6.3113 30.0342 8.01703 30.6889 9.78135 30.6669H22.2107C24.0677 30.6718 25.8524 29.9479 27.1813 28.6509C28.9606 26.9304 30.3114 24.8164 31.1251 22.4789C31.9389 20.1415 32.1929 17.6457 31.8667 15.1922ZM24.3907 25.7842C23.8075 26.3524 23.0249 26.6693 22.2107 26.6669H9.78135C9.0365 26.6826 8.31302 26.4175 7.75468 25.9242C6.56566 24.8181 5.6183 23.478 4.97215 21.9881C4.326 20.4982 3.99502 18.8908 4.00001 17.2669C4.00955 14.0961 5.27682 11.0587 7.52364 8.82135C9.77047 6.58403 12.8132 5.32964 15.984 5.33354C16.4562 5.33379 16.9281 5.3605 17.3973 5.41354C20.0397 5.72248 22.5048 6.89997 24.4056 8.76125C26.3065 10.6225 27.5356 13.0622 27.9 15.6975C28.1442 17.536 27.954 19.4061 27.3448 21.1578C26.7356 22.9095 25.7243 24.494 24.392 25.7842H24.3907ZM12.0707 20.6469C12.4296 21.0374 12.6187 21.5546 12.5963 22.0846C12.5739 22.6146 12.3419 23.1139 11.9513 23.4729C11.5608 23.8318 11.0436 24.0209 10.5136 23.9985C9.98365 23.9761 9.48427 23.7441 9.12535 23.3535C7.54243 21.6355 6.66461 19.3843 6.66668 17.0482C6.68109 14.7488 7.56632 12.5404 9.14404 10.8677C10.7218 9.19492 12.8748 8.18222 15.1693 8.03354C15.6982 7.99004 16.2226 8.15841 16.6274 8.5016C17.0321 8.84479 17.2839 9.33469 17.3273 9.86354C17.3708 10.3924 17.2025 10.9168 16.8593 11.3215C16.5161 11.7262 16.0262 11.978 15.4973 12.0215C14.2007 12.0787 12.9757 12.6326 12.0764 13.5685C11.177 14.5043 10.6723 15.7503 10.6667 17.0482C10.6658 18.3816 11.1671 19.6664 12.0707 20.6469ZM25.2547 18.2575C25.0096 20.1625 24.1778 21.9439 22.8747 23.3549C22.5154 23.7454 22.0157 23.9773 21.4855 23.9994C20.9552 24.0216 20.4379 23.8321 20.0473 23.4729C19.6568 23.1136 19.4249 22.6139 19.4028 22.0836C19.3807 21.5534 19.5701 21.0361 19.9293 20.6455C20.6732 19.8427 21.1485 18.8282 21.2893 17.7429C21.3701 17.2279 21.6487 16.7648 22.0659 16.4523C22.483 16.1397 23.0057 16.0023 23.5226 16.0694C24.0395 16.1365 24.5098 16.4028 24.8333 16.8115C25.1569 17.2202 25.308 17.739 25.2547 18.2575ZM18.648 17.5135C18.616 18.0258 18.4368 18.5179 18.132 18.9308C17.8271 19.3437 17.4096 19.6599 16.9296 19.8414C16.4495 20.0229 15.9273 20.062 15.4255 19.954C14.9238 19.846 14.4638 19.5955 14.1009 19.2326C13.738 18.8697 13.4876 18.4098 13.3796 17.908C13.2716 17.4063 13.3107 16.884 13.4922 16.404C13.6737 15.9239 13.9899 15.5064 14.4028 15.2016C14.8157 14.8968 15.3078 14.7176 15.82 14.6855L19.252 11.2522C19.6272 10.877 20.1361 10.6662 20.6667 10.6662C21.1973 10.6662 21.7062 10.877 22.0813 11.2522C22.4565 11.6274 22.6673 12.1363 22.6673 12.6669C22.6673 13.1975 22.4565 13.7063 22.0813 14.0815L18.648 17.5135Z" fill="#313131"/>
</g>
<defs>
<clipPath id="clip0_163_896">
<rect width="32" height="32" fill="white"/>
</clipPath>
</defs>
</svg>
