<svg width="32" height="32" viewBox="0 0 32 32" fill="none" xmlns="http://www.w3.org/2000/svg">
<g opacity="0.8" clip-path="url(#clip0_219_1081)">
<path d="M30.6329 11.5936L21.185 2.14563C18.319 -0.71293 13.6802 -0.71293 10.8143 2.14563L1.36631 11.5936C0.488308 12.4669 -0.00381633 13.6552 -0.000378841 14.8936V28.7309C0.00255865 30.5371 1.46681 32.0001 3.27299 32.0016H28.7263C30.5324 32.0001 31.9966 30.5371 31.9996 28.7309V14.8936C32.0031 13.6552 31.5109 12.4669 30.6329 11.5936ZM27.9996 28.0016H21.333V23.7589C21.333 20.9474 19.0538 18.6682 16.2423 18.6682H15.757C12.9455 18.6682 10.6663 20.9474 10.6663 23.7589V28.0016H3.99961V14.8936C4.00005 14.7168 4.06993 14.5473 4.1943 14.4216L13.6423 4.97362C14.9438 3.67169 17.0544 3.67144 18.3563 4.973C18.3565 4.97318 18.3568 4.97343 18.357 4.97362L27.8049 14.4216C27.9293 14.5473 27.9992 14.7168 27.9996 14.8936V28.0016H27.9996Z" fill="#2473DF"/>
</g>
<defs>
<clipPath id="clip0_219_1081">
<rect width="32" height="32" fill="white"/>
</clipPath>
</defs>
</svg>
