<svg width="32" height="32" viewBox="0 0 32 32" fill="none" xmlns="http://www.w3.org/2000/svg">
<g clip-path="url(#clip0_160_1033)">
<path d="M10.6667 28H4.54533C4.40081 27.9996 4.26231 27.9421 4.16011 27.8399C4.05792 27.7377 4.00035 27.5992 4 27.4547V4.54533C4.00035 4.40081 4.05792 4.26231 4.16011 4.16011C4.26231 4.05792 4.40081 4.00035 4.54533 4H10.6667C11.1971 4 11.7058 3.78929 12.0809 3.41421C12.456 3.03914 12.6667 2.53043 12.6667 2C12.6667 1.46957 12.456 0.960859 12.0809 0.585786C11.7058 0.210714 11.1971 0 10.6667 0L4.54533 0C3.34027 0.0014115 2.18497 0.480747 1.33286 1.33286C0.480747 2.18497 0.0014115 3.34027 0 4.54533L0 27.4547C0.0014115 28.6597 0.480747 29.815 1.33286 30.6671C2.18497 31.5193 3.34027 31.9986 4.54533 32H10.6667C11.1971 32 11.7058 31.7893 12.0809 31.4142C12.456 31.0391 12.6667 30.5304 12.6667 30C12.6667 29.4696 12.456 28.9609 12.0809 28.5858C11.7058 28.2107 11.1971 28 10.6667 28Z" fill="#313131"/>
<path d="M30.2429 11.7564L25.0669 6.5844C24.8811 6.39871 24.6606 6.25144 24.4179 6.15097C24.1752 6.05051 23.9151 5.99884 23.6524 5.9989C23.3897 5.99896 23.1297 6.05076 22.887 6.15134C22.6444 6.25191 22.4239 6.39929 22.2382 6.58507C22.0525 6.77085 21.9052 6.99138 21.8048 7.23407C21.7043 7.47677 21.6526 7.73688 21.6527 7.99954C21.6528 8.53002 21.8637 9.03872 22.2389 9.41374L26.7882 13.9617L8.66687 13.9991C8.13644 13.9991 7.62773 14.2098 7.25266 14.5849C6.87758 14.9599 6.66687 15.4686 6.66687 15.9991C6.66687 16.5295 6.87758 17.0382 7.25266 17.4133C7.62773 17.7884 8.13644 17.9991 8.66687 17.9991L26.8615 17.9657L22.2389 22.5884C21.8858 22.9677 21.6937 23.4693 21.7031 23.9874C21.7124 24.5055 21.9226 24.9998 22.2892 25.366C22.6558 25.7323 23.1503 25.942 23.6684 25.9509C24.1865 25.9598 24.6879 25.7672 25.0669 25.4137L30.2389 20.2417C30.796 19.6846 31.238 19.0231 31.5395 18.2952C31.8411 17.5672 31.9963 16.787 31.9963 15.9991C31.9963 15.2111 31.8411 14.4309 31.5395 13.703C31.238 12.975 30.796 12.3136 30.2389 11.7564H30.2429Z" fill="#313131"/>
</g>
<defs>
<clipPath id="clip0_160_1033">
<rect width="32" height="32" fill="white"/>
</clipPath>
</defs>
</svg>
