<svg width="1623" height="1205" viewBox="0 0 1623 1205" fill="none" xmlns="http://www.w3.org/2000/svg">
<path d="M0 162.666C104.435 146.927 290.815 174.646 346.5 294.769C394.792 398.944 372 514.651 490 439.5C608 364.349 783 308.244 1061.5 398.944C1284.3 471.503 1296.5 474.095 1387 398.944C1446.28 349.714 1467.53 251.066 1521 217.764V1095H0V162.666Z" fill="#5B5B5B"/>
<path d="M0 238.078C92.2179 193.723 35.9678 645.317 387.955 539.772C743.694 433.101 668.668 660.223 844.24 705.647C921 725.506 929.693 712.546 1018.5 612C1089.55 531.563 1313.63 531.266 1377.59 539.772C1438.37 547.855 1492.1 619.408 1521 665.86V1095H0V238.078Z" fill="#838383"/>
<path d="M1589.01 127.04C1587.35 20.5708 1610.97 -1.93 1623 0.124922V1095L917.804 1155H675.8L413 1095C501.942 923.878 699.071 977.971 882.156 954.045C1065.24 930.119 892.559 823.492 1027.27 696.581C1161.99 569.669 1169.79 668.494 1266.53 618.042C1363.28 567.589 1180.19 357.977 1300.86 271.636C1421.53 185.294 1591.09 260.192 1589.01 127.04Z" fill="#6F6F6F"/>
<path d="M1623 1127.21L821.5 1161C969 929.5 1217 993.806 1316 969.806C1380.01 954.288 1488.75 907.626 1571 744.002C1590.27 705.664 1602.56 658.416 1623 626.442V1127.21Z" fill="#5B5B5B"/>
<path d="M0 1095V624C243 651 213 1047.5 417.5 1041.5C476.328 1039.77 532.5 986.5 655.401 1010.72C779.611 1035.2 792 1190.5 792 1190.5L0 1095Z" fill="#565656"/>
<path d="M1378 1024.5C1476.72 1024.5 1558.3 1035.28 1623 1051.33V1205H0V1075.86C115.156 1074.76 282.169 1120.45 365 1132.2C575 1162 1142.54 1024.5 1378 1024.5Z" fill="#404040"/>
</svg>
