<svg width="205" height="124" viewBox="0 0 205 124" fill="none" xmlns="http://www.w3.org/2000/svg">
<path opacity="0.15" d="M201.147 0C203.021 0.00011331 204.541 1.51982 204.541 3.39453V119.67C204.541 121.545 203.021 123.064 201.147 123.064H107.293C135.738 74.8428 197.096 60.5442 199.873 40.3145C202.285 22.7445 168.897 17.4799 155.566 0H201.147Z" fill="black"/>
<path opacity="0.15" d="M26.8057 0C23.0357 18.502 23.8658 49.9854 46.2549 82.75C73.476 122.586 146.142 108.668 183.604 123.064H3.39453C1.51966 123.064 0 121.544 0 119.669V3.39453C0.000122688 1.51975 1.51974 8.54873e-05 3.39453 0H26.8057Z" fill="black"/>
</svg>
