<svg width="44" height="161" viewBox="0 0 44 161" fill="none" xmlns="http://www.w3.org/2000/svg">
<path d="M9.99707 0.971914C14.4756 0.971836 8.3174 -1.21485 18.3945 0.971914C28.4721 3.1588 27.9128 5.34523 32.3916 3.15844C36.3941 1.20416 40.397 2.74064 44 3.09008V157.908C40.397 158.258 36.3941 159.794 32.3916 157.84C27.9129 155.653 28.472 157.84 18.3945 160.027C8.3174 162.213 14.4756 160.027 9.99707 160.027C5.51815 160.027 7.19736 159.48 1.03906 160.027C0.662232 160.06 0.31664 160.086 0 160.104V0.894766C0.316644 0.91247 0.662226 0.938461 1.03906 0.971914C7.19738 1.51861 5.51814 0.971914 9.99707 0.971914Z" fill="#B8C2D9"/>
</svg>
